# xmcd
#
# Track frame offsets: 
#        150
#        10642
#        22632
#        32145
#        44152
#        55475
#        65140
#        75452
#        87180
#        98327
#        109635
#        122067
#        136352
#        148035
#        160512
#
# Disc length: 2312 seconds
#
# Revision: 2
# Processed by: cddbd v1.5.2PL0 Copyright (c) Steve Scherf et al.
# Submitted via: ExactAudioCopy v0.99pb5
#
DISCID=b809060f
DTITLE=Various Artist - Classic Country Vol. 13 Honky Tonkin' 1952-1957 Disc 
DTITLE=1
DYEAR=1999
DGENRE=Country
TTITLE0=Faron Young - Live Fast Love Hard Die Young
TTITLE1=Jim Reeves - Mexican Joe
TTITLE2=Webb Pierce - In The Jailhouse Now
TTITLE3=Johnny Cash - Home Of The Blues
TTITLE4=Elvis Presley - I Forgot To Remember To Forget
TTITLE5=Louvin Brothers - I Don't Believe You've Met My Baby
TTITLE6=Jimmy C. Newman - A Fallen Star
TTITLE7=Eddy Arnold - I Really Don't Want To Know
TTITLE8=Carlisles - No Help Wanted
TTITLE9=Carl Smith - Hey Joe
TTITLE10=Sanford Clark - The Fool
TTITLE11=Slim Whitman - Indian Love Call
TTITLE12=Hank Williams - Kaw-Liga
TTITLE13=Skeets McDonald - Don't Let The Stars Get In Your Eyes
TTITLE14=Kitty Wells - Makin' Believe
EXTD=
EXTT0=
EXTT1=
EXTT2=
EXTT3=
EXTT4=
EXTT5=
EXTT6=
EXTT7=
EXTT8=
EXTT9=
EXTT10=
EXTT11=
EXTT12=
EXTT13=
EXTT14=
PLAYORDER=
